# xmcd
#
# Track frame offsets:
#	150
#	10546
#	28550
#	48900
#	65653
#	81448
#	101239
#	120868
#	133785
#	151838
#	172536
#	190198
#	210328
#
# Disc length: 3091 seconds
#
# Revision: 0
# Processed by: cddbd v1.5.2PL0 Copyright (c) Steve Scherf et al.
# Submitted via: EasyCDDAExtractor 16.0.6.1
#
DISCID=980c110d
DTITLE=Dolly Parton  - 2005-09-01 - Molson Amphitheatre,Toronto - Disc 2
DYEAR=1900
DGENRE=
TTITLE0=Dolly Talks - 01
TTITLE1=Smokey Mountain Memories - 02
TTITLE2=Marry Me - 03
TTITLE3=If I were a Carpender - 04
TTITLE4=Where Do The Children Play - 05
TTITLE5=Where Have All Of The Young Girls Gone - 06
TTITLE6=PMS Blues - 07
TTITLE7=Here You Come Again - 08
TTITLE8=Two Doors Down - 09
TTITLE9=I Will Always Love You - 10
TTITLE10=Turn Turn Turn - 11
TTITLE11=Blowin' In The Wind - 12
TTITLE12=Imagine - 13
EXTD=
EXTT0=
EXTT1=
EXTT2=
EXTT3=
EXTT4=
EXTT5=
EXTT6=
EXTT7=
EXTT8=
EXTT9=
EXTT10=
EXTT11=
EXTT12=
PLAYORDER=
